<?xml version="1.0" encoding="UTF-8" standalone="no"?>
<!-- Created with Inkscape (http://www.inkscape.org/) -->

<svg
   xmlns:dc="http://purl.org/dc/elements/1.1/"
   xmlns:cc="http://creativecommons.org/ns#"
   xmlns:rdf="http://www.w3.org/1999/02/22-rdf-syntax-ns#"
   xmlns:svg="http://www.w3.org/2000/svg"
   xmlns="http://www.w3.org/2000/svg"
   xmlns:sodipodi="http://sodipodi.sourceforge.net/DTD/sodipodi-0.dtd"
   xmlns:inkscape="http://www.inkscape.org/namespaces/inkscape"
   id="svg2"
   version="1.1"
   inkscape:version="0.48.4 r9939"
   width="744.09375"
   height="524.40875"
   xml:space="preserve"
   sodipodi:docname="COM' LOGOnoir.ai"><metadata
     id="metadata8"><rdf:RDF><cc:Work
         rdf:about=""><dc:format>image/svg+xml</dc:format><dc:type
           rdf:resource="http://purl.org/dc/dcmitype/StillImage" /><dc:title></dc:title></cc:Work></rdf:RDF></metadata><defs
     id="defs6"><clipPath
       clipPathUnits="userSpaceOnUse"
       id="clipPath16"><path
         d="m 0,419.527 595.275,0 L 595.275,0 0,0 0,419.527 z"
         id="path18" /></clipPath><clipPath
       clipPathUnits="userSpaceOnUse"
       id="clipPath36"><path
         d="m 278.951,51.435 111.203,0 0,142.991 -111.203,0 0,-142.991 z"
         id="path38" /></clipPath><clipPath
       clipPathUnits="userSpaceOnUse"
       id="clipPath56"><path
         d="m 3,11.936 586.275,0 0,407.591 L 3,419.527 3,11.936 z"
         id="path58" /></clipPath><clipPath
       clipPathUnits="userSpaceOnUse"
       id="clipPath68"><path
         d="m 423.416,53.778 156.495,0 0,307.407 -156.495,0 0,-307.407 z"
         id="path70" /></clipPath><clipPath
       clipPathUnits="userSpaceOnUse"
       id="clipPath104"><path
         d="m 318.811,291.429 86.738,0 0,87.646 -86.738,0 0,-87.646 z"
         id="path106" /></clipPath><clipPath
       clipPathUnits="userSpaceOnUse"
       id="clipPath120"><path
         d="m 20.855,107.601 413.036,0 0,224.3 -413.036,0 0,-224.3 z"
         id="path122" /></clipPath><clipPath
       clipPathUnits="userSpaceOnUse"
       id="clipPath136"><path
         d="m 3,11.936 586.275,0 0,407.591 L 3,419.527 3,11.936 z"
         id="path138" /></clipPath><clipPath
       clipPathUnits="userSpaceOnUse"
       id="clipPath196"><path
         d="m 191.188,62.54 71.138,0 0,54.885 -71.138,0 0,-54.885 z"
         id="path198" /></clipPath></defs><sodipodi:namedview
     pagecolor="#ffffff"
     bordercolor="#666666"
     borderopacity="1"
     objecttolerance="10"
     gridtolerance="10"
     guidetolerance="10"
     inkscape:pageopacity="0"
     inkscape:pageshadow="2"
     inkscape:window-width="1366"
     inkscape:window-height="741"
     id="namedview4"
     showgrid="false"
     inkscape:zoom="0.45003063"
     inkscape:cx="372.04687"
     inkscape:cy="262.20438"
     inkscape:window-x="0"
     inkscape:window-y="-5"
     inkscape:window-maximized="1"
     inkscape:current-layer="g10" /><g
     id="g10"
     inkscape:groupmode="layer"
     inkscape:label="COM' LOGOnoir"
     transform="matrix(1.25,0,0,-1.25,0,524.40875)"><g
       id="g12"><g
         id="g14"
         clip-path="url(#clipPath16)"><g
           id="g20"
           transform="translate(588.0195,210.5977)"><path
             d="m 0,0 c 0,112.706 -129.418,204.071 -289.063,204.071 -159.645,0 -289.062,-91.365 -289.062,-204.071 0,-112.705 129.417,-204.07 289.062,-204.07 C -129.418,-204.07 0,-112.705 0,0"
             style="fill:#2d2c2e;fill-opacity:1;fill-rule:nonzero;stroke:none"
             id="path22" /></g><g
           id="g24"
           transform="translate(588.0195,210.5977)"><path
             d="m 0,0 c 0,112.706 -129.418,204.071 -289.063,204.071 -159.645,0 -289.062,-91.365 -289.062,-204.071 0,-112.705 129.417,-204.07 289.062,-204.07 C -129.418,-204.07 0,-112.705 0,0 z"
             style="fill:none;stroke:#2d2c2e;stroke-opacity:1;stroke-width:2;stroke-linecap:butt;stroke-linejoin:miter;stroke-miterlimit:4;stroke-dasharray:none"
             id="path26" /></g><g
           id="g28"
           transform="translate(467.3711,190.833)"><path
             d="m 0,0 -15.758,-48.917 4.432,-27.177 68.334,69.345 40.988,8.231 11.326,-1.976 -0.985,19.27 L 97.011,42.988 46.782,76.588 -0.916,71.416 0,0 z"
             style="fill:#2d2c2e;fill-opacity:1;fill-rule:nonzero;stroke:none"
             id="path30" /></g></g></g><g
       id="g32"><g
         id="g34"
         clip-path="url(#clipPath36)"><g
           id="g40"
           transform="translate(389.8906,170.4072)"><path
             d="m 0,0 c 0.089,-0.175 0.179,-0.353 0.264,-0.521 -2.054,-11.234 -4.581,-18.961 -6.087,-29.876 -0.343,-2.488 -1.091,-6.019 -1.514,-8.461 -1.804,-10.282 -4.559,-19.574 -8.366,-28.96 -6.391,-15.769 -20.084,-26.159 -36.384,-36.777 -0.184,-0.102 -0.37,-0.206 -0.556,-0.309 -0.878,-0.489 -1.762,-0.982 -2.649,-1.476 -0.004,-0.001 -0.009,-0.004 -0.015,-0.008 -19.079,-10.243 -38.172,-12.714 -55.456,-12.58 -0.059,0.116 -0.116,0.226 -0.176,0.346 -0.006,0.921 3.112,2.876 4.243,4.245 7.316,8.855 12.411,21.311 15.607,32.52 6.74,23.637 9.94,46.694 30.334,64.77 C -42.969,-1.318 -19.729,3.285 0,0"
             style="fill:#ffed00;fill-opacity:1;fill-rule:nonzero;stroke:none"
             id="path42" /></g><g
           id="g44"
           transform="translate(298.835,193.7578)"><path
             d="m 0,0 c 5.381,-4.957 -5.289,-9.991 -5.048,-2.256 0.016,0.51 0.693,1.779 1.207,2.225 C -2.652,0.99 -0.864,0.799 0,0"
             style="fill:#2d2c2e;fill-opacity:1;fill-rule:nonzero;stroke:none"
             id="path46" /></g><g
           id="g48"
           transform="translate(337.248,65.5029)"><path
             d="M 0,0 C -0.883,-0.509 -1.764,-1 -2.649,-1.475 -1.763,-0.98 -0.878,-0.488 0,0"
             style="fill:#b68ab9;fill-opacity:1;fill-rule:nonzero;stroke:none"
             id="path50" /></g></g></g><g
       id="g52"><g
         id="g54"
         clip-path="url(#clipPath56)"><g
           id="g60"
           transform="translate(527.8516,278.3442)"><path
             d="M 0,0 C -1.403,-11.784 -15.803,-19.834 -52.104,-16.989 -89.396,-14.065 -82.072,5.459 -83.7,18.329 -85.171,29.978 -99.063,33.515 -62.915,29.183 -26.764,24.85 1.402,11.787 0,0"
             style="fill:#ffffff;fill-opacity:1;fill-rule:nonzero;stroke:none"
             id="path62" /></g></g></g><g
       id="g64"><g
         id="g66"
         clip-path="url(#clipPath68)"><g
           id="g72"
           transform="translate(579.3447,205.6738)"><path
             d="m 0,0 c 3.946,-25.623 -13.758,-52.094 -21.984,-65.621 -26.041,-42.841 -58.979,-76.296 -102.367,-85.963 -5.283,-0.675 -9.982,-0.343 -15.375,1.844 -4.179,1.974 -7.799,4.726 -10.202,9.55 -22.487,49.379 24.858,81.34 33.402,125.851 6.326,5.456 4.868,23.52 5.307,32.657 1.403,-0.159 1.509,-1.525 2.602,-1.971 2.959,-24.291 -6.412,-60.366 -13.38,-76.651 -3.376,-1.358 -1.758,-10.251 -3.152,-14.6 1.968,-1.107 3.23,-2.854 5.2,-3.951 7.249,-7.426 23.751,1.261 30.131,3.046 38.339,10.708 79.877,19.094 85.461,63.014 -14.603,-0.346 -37.972,-3.239 -48.662,-15.813 6.089,16.649 25.791,12.804 37.873,20.436 3.652,0.962 7.744,1.251 12.775,0.128 0.593,17.587 -8.95,25.574 -15.606,36.463 -13.678,8.075 -27.754,18.313 -40.446,28.523 -17.446,14.026 -26.679,36.899 -45.209,37.051 -6.129,0.049 -11.472,-7.611 -19.14,-6.034 -3.119,-13.593 1.501,-20.025 3.662,-28.734 2.348,-1.245 5.74,-1.866 8.19,-2.65 -2.259,-11.34 1.951,-16.703 1.07,-26.762 -0.181,-4.838 -1.006,-5.603 -3.185,-2.949 -6.14,30.348 -29.513,44.751 -30.142,80.197 -0.417,9.834 -0.17,18.345 2.115,29.71 1.775,6.344 4.296,15.465 11.74,15.24 5.812,-0.464 4.108,-7.874 11.987,-6.435 7.154,2.797 9.52,12.779 20.932,9.149 -0.035,-1.016 -0.021,-1.963 1.207,-1.804 1.208,-5.71 7.191,-6.983 10.006,-11.197 7.343,-6.833 11.961,-16.197 18.426,-23.844 C -48.247,82.646 -7.034,45.72 0,0"
             style="fill:#e43433;fill-opacity:1;fill-rule:nonzero;stroke:none"
             id="path74" /></g><g
           id="g76"
           transform="translate(526.3262,177.0654)"><path
             d="M 0,0 C 10.689,12.574 34.059,15.468 48.661,15.813 43.077,-28.106 1.54,-36.492 -36.8,-47.2 c -6.38,-1.785 -22.882,-10.473 -30.131,-3.047 -1.263,1.793 -1.597,2.834 -2.21,5.254 4.408,27.804 16.39,37.934 33.003,50.983 5.498,4.319 7.894,4.968 12.158,6.871 10.33,4.613 16.569,4.74 24.932,7.001 3.166,-1.529 12.043,-5.293 15.367,-1.842 10.452,-5.267 11.074,3.663 21.553,2.417 C 25.791,12.805 6.089,16.649 0,0"
             style="fill:#eb6d7c;fill-opacity:1;fill-rule:nonzero;stroke:none"
             id="path78" /></g><g
           id="g80"
           transform="translate(542.6455,195.085)"><path
             d="M 0,0 C -3.324,-3.45 -12.201,0.313 -15.367,1.843 -13.09,4.324 -1.63,2.95 0,0"
             style="fill:#f7c1b4;fill-opacity:1;fill-rule:nonzero;stroke:none"
             id="path82" /></g><g
           id="g84"
           transform="translate(512.5811,323.5537)"><path
             d="m 0,0 c -6.465,7.646 -11.083,17.01 -18.427,23.844 -1.386,5.536 -5.975,8.108 -10.006,11.197 -1.227,-0.16 -1.241,0.788 -1.207,1.804 C -15.795,28.639 -8.359,13.689 0,0"
             style="fill:#e43433;fill-opacity:1;fill-rule:nonzero;stroke:none"
             id="path86" /></g><g
           id="g88"
           transform="translate(484.1484,358.5942)"><path
             d="M 0,0 C 4.03,-3.089 8.62,-5.661 10.006,-11.197 7.191,-6.983 1.208,-5.708 0,0"
             style="fill:#ea6856;fill-opacity:1;fill-rule:nonzero;stroke:none"
             id="path90" /></g><g
           id="g92"
           transform="translate(469.4951,235.4854)"><path
             d="m 0,0 c 1.717,-3.285 1.749,-8.12 1.232,-13.465 -1.092,0.446 -1.199,1.813 -2.601,1.973 -0.44,-9.138 1.018,-27.202 -5.308,-32.658 4.204,12.897 4.253,28.703 3.49,41.203 C -1.007,-5.602 -0.183,-4.838 0,0"
             style="fill:#e6443e;fill-opacity:1;fill-rule:nonzero;stroke:none"
             id="path94" /></g><g
           id="g96"
           transform="translate(457.1855,132.0723)"><path
             d="m 0,0 c 0.612,-2.42 0.946,-3.461 2.21,-5.254 -1.97,1.098 -3.231,2.844 -5.2,3.951 1.394,4.35 -0.224,13.243 3.152,14.601 C -0.259,11.827 -2.994,2.111 0,0"
             style="fill:#e43433;fill-opacity:1;fill-rule:nonzero;stroke:none"
             id="path98" /></g></g></g><g
       id="g100"><g
         id="g102"
         clip-path="url(#clipPath104)"><g
           id="g108"
           transform="translate(386.4717,335.3945)"><path
             d="M 0,0 C 0.454,-0.683 0.898,-1.364 1.334,-2.044 0.886,-1.359 0.441,-0.679 0,0"
             style="fill:#72b555;fill-opacity:1;fill-rule:nonzero;stroke:none"
             id="path110" /></g><g
           id="g112"
           transform="translate(402.2402,294.7627)"><path
             d="m 0,0 c -6.273,5.807 -14.08,10.114 -20.834,12.957 -14.242,5.986 -27.473,9.319 -41.349,25.248 -12.103,13.89 -19.173,31.383 -21.247,45.931 0.08,0.061 0.157,0.117 0.234,0.175 l 0.001,10e-4 c 6.546,-1.988 11.462,-3.401 17.527,-5.759 1.505,-0.585 3.592,-1.429 5.009,-1.85 5.974,-1.762 11.522,-4.074 17.382,-7.044 9.92,-5.02 18.234,-16.028 27.228,-28.602 0.093,-0.142 0.186,-0.285 0.28,-0.425 0.441,-0.679 0.886,-1.36 1.333,-2.046 C -5.099,23.962 -0.004,9.648 3.308,-3.22 3.253,-3.257 3.205,-3.293 3.151,-3.333 2.653,-3.297 0.97,-0.898 0,0"
             style="fill:#414590;fill-opacity:1;fill-rule:nonzero;stroke:none"
             id="path114" /></g></g></g><g
       id="g116"><g
         id="g118"
         clip-path="url(#clipPath120)"><g
           id="g124"
           transform="translate(433.7207,195.1377)"><path
             d="m 0,0 c 0.057,-0.779 0.112,-1.558 0.17,-2.328 -26.252,13.909 -66.24,15.477 -98.536,6.116 -82.12,-30.256 -148.609,-84.04 -244.503,-91.051 -0.176,-0.013 -0.344,-0.025 -0.52,-0.039 -0.396,-0.029 -0.793,-0.057 -1.19,-0.087 -0.671,-0.049 -1.352,-0.098 -2.023,-0.147 -17.892,1.105 -30.904,10.142 -42.399,23.868 -9.261,11.069 -17.076,23.364 -20.796,39.079 -0.355,1.497 -0.823,2.776 -1.123,4.361 -0.308,1.812 -0.928,5.183 -1.189,8.142 -0.027,0.369 -0.055,0.746 -0.081,1.114 -0.22,3.022 -0.439,6.043 -0.659,9.065 -1.461,95.777 88.699,122.161 161.821,136.915 3.851,0.449 6.989,0.755 10.55,0.771 C -132.157,145.097 -52.671,87.412 0,0"
             style="fill:#88d0f0;fill-opacity:1;fill-rule:nonzero;stroke:none"
             id="path126" /></g><g
           id="g128"
           transform="translate(21.5303,184.166)"><path
             d="M 0,0 C 0.027,-0.368 0.055,-0.745 0.081,-1.113 0.045,-0.738 0.019,-0.36 0,0"
             style="fill:#88d0f0;fill-opacity:1;fill-rule:nonzero;stroke:none"
             id="path130" /></g></g></g><g
       id="g132"><g
         id="g134"
         clip-path="url(#clipPath136)"><g
           id="g140"
           transform="translate(133.7393,141.1748)"><path
             d="m 0,0 c -6.354,-1.078 -10.547,0.512 -15.437,4.748 -7.394,6.406 -10.41,17.318 -11.529,26.861 -2.827,22.754 -5.051,45.533 -6.807,68.393 -0.674,9.346 1.402,18.716 5.69,27.001 4.481,8.659 10.612,14.771 18.503,17.853 3.646,1.385 5.517,2.088 9.691,3.55 9.049,3.083 17.401,3.194 23.08,-1.716 5.68,-4.912 8.998,-13.097 9.697,-24.313 0.229,-3.671 0.346,-5.554 0.58,-9.371 0.236,-10.727 -2.927,-17.358 -9.129,-19.358 -4.045,-1.306 -6.258,-2.028 -10.694,-3.463 -5.367,-1.458 -8.673,3.16 -9.796,13.222 -0.135,1.721 -0.2,2.577 -0.332,4.271 -0.959,5.212 -2.811,7.206 -5.417,6.324 -0.391,-0.131 -0.585,-0.197 -0.972,-0.328 -2.575,-0.875 -3.78,-3.898 -3.859,-9.374 1.803,-22.028 3.623,-44.054 5.431,-66.08 0.934,-5.069 2.632,-7.119 5.141,-6.466 0.377,0.099 0.567,0.149 0.942,0.248 2.507,0.665 4.022,3.483 3.968,8.131 -0.139,11.956 1.601,20.393 6.733,22.269 4.273,1.335 6.393,2.008 10.38,3.235 6.058,1.724 10.163,-2.785 11.298,-12.764 0.211,-3.384 0.314,-5.044 0.515,-8.273 C 38.514,34.491 38.285,21.65 30.923,13.936 25.625,8.384 20.559,5.221 13.7,3.231 8.351,1.737 4.945,0.894 0,0"
             style="fill:#e43433;fill-opacity:1;fill-rule:nonzero;stroke:none"
             id="path142" /></g><g
           id="g144"
           transform="translate(133.7393,141.1748)"><path
             d="m 0,0 c -6.354,-1.078 -10.547,0.512 -15.437,4.748 -7.394,6.406 -10.41,17.318 -11.529,26.861 -2.827,22.754 -5.051,45.533 -6.807,68.393 -0.674,9.346 1.402,18.716 5.69,27.001 4.481,8.659 10.612,14.771 18.503,17.853 3.646,1.385 5.517,2.088 9.691,3.55 9.049,3.083 17.401,3.194 23.08,-1.716 5.68,-4.912 8.998,-13.097 9.697,-24.313 0.229,-3.671 0.346,-5.554 0.58,-9.371 0.236,-10.727 -2.927,-17.358 -9.129,-19.358 -4.045,-1.306 -6.258,-2.028 -10.694,-3.463 -5.367,-1.458 -8.673,3.16 -9.796,13.222 -0.135,1.721 -0.2,2.577 -0.332,4.271 -0.959,5.212 -2.811,7.206 -5.417,6.324 -0.391,-0.131 -0.585,-0.197 -0.972,-0.328 -2.575,-0.875 -3.78,-3.898 -3.859,-9.374 1.803,-22.028 3.623,-44.054 5.431,-66.08 0.934,-5.069 2.632,-7.119 5.141,-6.466 0.377,0.099 0.567,0.149 0.942,0.248 2.507,0.665 4.022,3.483 3.968,8.131 -0.139,11.956 1.601,20.393 6.733,22.269 4.273,1.335 6.393,2.008 10.38,3.235 6.058,1.724 10.163,-2.785 11.298,-12.764 0.211,-3.384 0.314,-5.044 0.515,-8.273 C 38.514,34.491 38.285,21.65 30.923,13.936 25.625,8.384 20.559,5.221 13.7,3.231 8.351,1.737 4.945,0.894 0,0 z"
             style="fill:none;stroke:#2d2c2e;stroke-opacity:1;stroke-width:2;stroke-linecap:butt;stroke-linejoin:miter;stroke-miterlimit:4;stroke-dasharray:none"
             id="path146" /></g><g
           id="g148"
           transform="translate(210.1753,195.2256)"><path
             d="m 0,0 c 2.358,1.018 3.559,4.001 3.537,9.255 -2.121,21.57 -4.289,43.136 -6.427,64.703 -0.954,5.125 -2.497,7.338 -4.62,6.83 -0.317,-0.076 -0.477,-0.116 -0.796,-0.192 -2.118,-0.516 -3.169,-3.376 -3.142,-8.85 1.886,-22.112 3.803,-44.222 5.683,-66.334 0.904,-4.993 2.523,-6.809 4.88,-5.793 C -0.531,-0.228 -0.354,-0.152 0,0 m -2.35,-32.594 c -7.912,-3.485 -14.586,-2.91 -20.582,1.66 -5.994,4.569 -9.423,11.999 -10.145,22.727 -1.742,26.016 -3.445,52.034 -5.175,78.05 -0.795,9.96 0.936,20.221 5.907,28.889 4.611,8.042 11.257,12.367 17.879,13.774 3.061,0.611 4.517,0.866 7.69,1.294 6.881,0.846 14.317,-1.436 20.613,-7.45 6.297,-6.016 9.99,-13.855 10.998,-23.666 C 27.146,60.125 29.437,37.565 31.862,15.019 32.891,5.616 31.024,-2.867 25.967,-11.134 20.909,-19.4 14.639,-24.426 6.77,-28.286 3.135,-30.035 1.3,-30.952 -2.35,-32.594"
             style="fill:#ffed00;fill-opacity:1;fill-rule:nonzero;stroke:none"
             id="path150" /></g><g
           id="g152"
           transform="translate(210.1753,195.2256)"><path
             d="m 0,0 c 2.358,1.018 3.559,4.001 3.537,9.255 -2.121,21.57 -4.289,43.136 -6.427,64.703 -0.954,5.125 -2.497,7.338 -4.62,6.83 -0.317,-0.076 -0.477,-0.116 -0.796,-0.192 -2.118,-0.516 -3.169,-3.376 -3.142,-8.85 1.886,-22.112 3.803,-44.222 5.683,-66.334 0.904,-4.993 2.523,-6.809 4.88,-5.793 C -0.531,-0.228 -0.354,-0.152 0,0 z m -2.35,-32.594 c -7.912,-3.485 -14.586,-2.91 -20.582,1.66 -5.994,4.569 -9.423,11.999 -10.145,22.727 -1.742,26.016 -3.445,52.034 -5.175,78.05 -0.795,9.96 0.936,20.221 5.907,28.889 4.611,8.042 11.257,12.367 17.879,13.774 3.061,0.611 4.517,0.866 7.69,1.294 6.881,0.846 14.317,-1.436 20.613,-7.45 6.297,-6.016 9.99,-13.855 10.998,-23.666 C 27.146,60.125 29.437,37.565 31.862,15.019 32.891,5.616 31.024,-2.867 25.967,-11.134 20.909,-19.4 14.639,-24.426 6.77,-28.286 3.135,-30.035 1.3,-30.952 -2.35,-32.594 z"
             style="fill:none;stroke:#2d2c2e;stroke-opacity:1;stroke-width:2;stroke-linecap:butt;stroke-linejoin:miter;stroke-miterlimit:4;stroke-dasharray:none"
             id="path154" /></g><g
           id="g156"
           transform="translate(262.5923,187.5117)"><path
             d="m 0,0 c -6.708,-3.101 -11.566,-2.18 -13.145,5.816 -2.714,28.513 -4.761,57.089 -6.918,85.651 -0.338,9.293 2.296,16.771 6.146,22.2 3.848,5.428 7.771,7.198 15.152,5.86 1.098,-0.199 1.742,-0.313 3.096,-0.564 7.492,-1.536 14.823,-10.172 15.212,-10.171 0.736,0.005 6.663,3.892 12.519,2.902 1.062,-0.204 1.571,-0.3 2.56,-0.492 6.651,-1.289 11.171,-4.17 15.931,-7.982 4.76,-3.813 9.953,-11.247 11.157,-16.557 2.605,-16.794 4.595,-33.629 6.178,-50.548 -0.052,-6.395 -3.532,-10.594 -8.848,-12.091 -1.471,-0.436 -2.107,-0.636 -3.334,-1.04 -4.431,-1.532 -6.937,0.88 -8.086,7.715 -2.709,19.323 -6.375,38.492 -9.801,57.696 -0.511,1.082 -1.236,1.549 -2.243,1.389 C 34.568,89.62 33.951,89.001 33.815,87.9 36.716,68.1 40.027,48.343 42.252,28.45 42.489,21.398 38.714,16.995 33.554,15.011 32.202,14.473 31.554,14.205 30.207,13.634 25.166,11.423 21.031,12.577 19.5,19.705 16.346,43.357 13.133,67.002 9.831,90.634 9.327,91.931 8.47,92.622 7.137,92.688 5.802,92.755 5.291,92.079 5.104,90.594 7.808,66.065 10.377,41.519 12.958,16.976 13.514,9.226 10.779,4.85 4.486,2.04 2.747,1.244 1.861,0.84 0,0"
             style="fill:#414590;fill-opacity:1;fill-rule:nonzero;stroke:none"
             id="path158" /></g><g
           id="g160"
           transform="translate(262.5923,187.5117)"><path
             d="m 0,0 c -6.708,-3.101 -11.566,-2.18 -13.145,5.816 -2.714,28.513 -4.761,57.089 -6.918,85.651 -0.338,9.293 2.296,16.771 6.146,22.2 3.848,5.428 7.771,7.198 15.152,5.86 1.098,-0.199 1.742,-0.313 3.096,-0.564 7.492,-1.536 14.823,-10.172 15.212,-10.171 0.736,0.005 6.663,3.892 12.519,2.902 1.062,-0.204 1.571,-0.3 2.56,-0.492 6.651,-1.289 11.171,-4.17 15.931,-7.982 4.76,-3.813 9.953,-11.247 11.157,-16.557 2.605,-16.794 4.595,-33.629 6.178,-50.548 -0.052,-6.395 -3.532,-10.594 -8.848,-12.091 -1.471,-0.436 -2.107,-0.636 -3.334,-1.04 -4.431,-1.532 -6.937,0.88 -8.086,7.715 -2.709,19.323 -6.375,38.492 -9.801,57.696 -0.511,1.082 -1.236,1.549 -2.243,1.389 C 34.568,89.62 33.951,89.001 33.815,87.9 36.716,68.1 40.027,48.343 42.252,28.45 42.489,21.398 38.714,16.995 33.554,15.011 32.202,14.473 31.554,14.205 30.207,13.634 25.166,11.423 21.031,12.577 19.5,19.705 16.346,43.357 13.133,67.002 9.831,90.634 9.327,91.931 8.47,92.622 7.137,92.688 5.802,92.755 5.291,92.079 5.104,90.594 7.808,66.065 10.377,41.519 12.958,16.976 13.514,9.226 10.779,4.85 4.486,2.04 2.747,1.244 1.861,0.84 0,0 z"
             style="fill:none;stroke:#2d2c2e;stroke-opacity:1;stroke-width:2;stroke-linecap:butt;stroke-linejoin:miter;stroke-miterlimit:4;stroke-dasharray:none"
             id="path162" /></g><g
           id="g164"
           transform="translate(337.998,281.0986)"><path
             d="m 0,0 c 3.268,-3.113 6.556,-7.491 8.781,-12.342 2.224,-4.85 4.107,-10.033 3.647,-12.532 -0.615,-3.335 -5.5,-2.105 -9.826,2.222 -4.329,4.329 -9.096,8.3 -9.814,10.594 -0.492,1.576 -0.025,6.03 -0.977,9.759 C -9.142,1.43 -8.847,3.282 -7.348,3.812 -5.848,4.343 -3.613,3.444 0,0"
             style="fill:#e43433;fill-opacity:1;fill-rule:nonzero;stroke:none"
             id="path166" /></g><g
           id="g168"
           transform="translate(337.998,281.0986)"><path
             d="m 0,0 c 3.268,-3.113 6.556,-7.491 8.781,-12.342 2.224,-4.85 4.107,-10.033 3.647,-12.532 -0.615,-3.335 -5.5,-2.105 -9.826,2.222 -4.329,4.329 -9.096,8.3 -9.814,10.594 -0.492,1.576 -0.025,6.03 -0.977,9.759 C -9.142,1.43 -8.847,3.282 -7.348,3.812 -5.848,4.343 -3.613,3.444 0,0 z"
             style="fill:none;stroke:#2d2c2e;stroke-opacity:1;stroke-width:2;stroke-linecap:butt;stroke-linejoin:miter;stroke-miterlimit:4;stroke-dasharray:none"
             id="path170" /></g><g
           id="g172"
           transform="translate(66.0278,137.9385)"><path
             d="m 0,0 c -1.679,0.081 -3.274,0.883 -4.792,2.322 -1.517,1.438 -2.648,4.007 -3.152,7.75 -1.116,8.814 -1.368,13.308 -1.268,22.583 0.163,2.863 1.114,4.513 2.802,4.842 0.467,0.1 0.702,0.149 1.172,0.242 1.696,0.37 2.624,-0.895 2.841,-3.785 C -2.14,24.903 -1.833,20.198 -0.923,11.231 -0.669,9.962 -0.233,9.336 0.379,9.356 2.837,9.438 4.055,9.515 6.49,9.675 7.55,9.744 8.201,8.996 8.438,7.453 8.594,5.408 8.672,4.4 8.825,2.431 8.809,0.931 8.306,0.167 7.311,0.114 4.406,-0.041 2.962,-0.094 0,0"
             style="fill:#ffed00;fill-opacity:1;fill-rule:nonzero;stroke:none"
             id="path174" /></g><g
           id="g176"
           transform="translate(66.0278,137.9385)"><path
             d="m 0,0 c -1.679,0.081 -3.274,0.883 -4.792,2.322 -1.517,1.438 -2.648,4.007 -3.152,7.75 -1.116,8.814 -1.368,13.308 -1.268,22.583 0.163,2.863 1.114,4.513 2.802,4.842 0.467,0.1 0.702,0.149 1.172,0.242 1.696,0.37 2.624,-0.895 2.841,-3.785 C -2.14,24.903 -1.833,20.198 -0.923,11.231 -0.669,9.962 -0.233,9.336 0.379,9.356 2.837,9.438 4.055,9.515 6.49,9.675 7.55,9.744 8.201,8.996 8.438,7.453 8.594,5.408 8.672,4.4 8.825,2.431 8.809,0.931 8.306,0.167 7.311,0.114 4.406,-0.041 2.962,-0.094 0,0 z"
             style="fill:none;stroke:#2d2c2e;stroke-opacity:1;stroke-width:2;stroke-linecap:butt;stroke-linejoin:miter;stroke-miterlimit:4;stroke-dasharray:none"
             id="path178" /></g><g
           id="g180"
           transform="translate(84.0698,160.6338)"><path
             d="M 0,0 C -0.448,3.109 -0.681,4.67 -1.166,7.768 -1.242,8.009 -1.426,8.111 -1.721,8.078 -2.015,8.044 -2.171,7.9 -2.19,7.647 -1.949,4.51 -1.844,2.926 -1.65,-0.249 -0.991,-0.152 -0.66,-0.103 0,0 m -4.911,-22.082 c -1.884,-0.271 -2.88,1.02 -3.219,3.894 -0.401,9.58 -0.631,15.049 -1.086,24.965 -0.055,2.718 0.486,5.114 1.559,7.257 1.072,2.144 2.487,3.317 4.336,3.514 0.309,0.033 0.465,0.051 0.775,0.082 1.85,0.188 3.561,-0.719 5.174,-2.645 1.614,-1.926 2.739,-4.131 3.298,-6.623 1.781,-9.128 2.442,-13.584 3.517,-22.502 0.109,-2.788 -0.681,-4.613 -2.557,-5.257 -0.521,-0.187 -0.783,-0.278 -1.319,-0.449 -1.924,-0.646 -3.129,0.503 -3.517,3.338 -0.419,3.598 -0.639,5.427 -1.108,9.109 -0.838,-0.166 -1.26,-0.243 -2.098,-0.391 0.206,-3.765 0.294,-5.646 0.448,-9.318 0.065,-2.919 -0.94,-4.536 -2.88,-4.791 -0.537,-0.08 -0.802,-0.117 -1.323,-0.183"
             style="fill:#72b555;fill-opacity:1;fill-rule:nonzero;stroke:none"
             id="path182" /></g><g
           id="g184"
           transform="translate(84.0698,160.6338)"><path
             d="M 0,0 C -0.448,3.109 -0.681,4.67 -1.166,7.768 -1.242,8.009 -1.426,8.111 -1.721,8.078 -2.015,8.044 -2.171,7.9 -2.19,7.647 -1.949,4.51 -1.844,2.926 -1.65,-0.249 -0.991,-0.152 -0.66,-0.103 0,0 m -4.911,-22.082 c -1.884,-0.271 -2.88,1.02 -3.219,3.894 -0.401,9.58 -0.631,15.049 -1.086,24.965 -0.055,2.718 0.486,5.114 1.559,7.257 1.072,2.144 2.487,3.317 4.336,3.514 0.309,0.033 0.465,0.051 0.775,0.082 1.85,0.188 3.561,-0.719 5.174,-2.645 1.614,-1.926 2.739,-4.131 3.298,-6.623 1.781,-9.128 2.442,-13.584 3.517,-22.502 0.109,-2.788 -0.681,-4.613 -2.557,-5.257 -0.521,-0.187 -0.783,-0.278 -1.319,-0.449 -1.924,-0.646 -3.129,0.503 -3.517,3.338 -0.419,3.598 -0.639,5.427 -1.108,9.109 -0.838,-0.166 -1.26,-0.243 -2.098,-0.391 0.206,-3.765 0.294,-5.646 0.448,-9.318 0.065,-2.919 -0.94,-4.536 -2.88,-4.791 -0.537,-0.08 -0.802,-0.117 -1.323,-0.183"
             style="fill:#414590;fill-opacity:1;fill-rule:nonzero;stroke:none"
             id="path186" /></g><g
           id="g188"
           transform="translate(84.0698,160.6338)"><path
             d="M 0,0 C -0.448,3.109 -0.681,4.67 -1.166,7.768 -1.242,8.009 -1.426,8.111 -1.721,8.078 -2.015,8.044 -2.171,7.9 -2.19,7.647 -1.949,4.51 -1.844,2.926 -1.65,-0.249 -0.991,-0.152 -0.66,-0.103 0,0 z m -4.911,-22.082 c -1.884,-0.271 -2.88,1.02 -3.219,3.894 -0.401,9.58 -0.631,15.049 -1.086,24.965 -0.055,2.718 0.486,5.114 1.559,7.257 1.072,2.144 2.487,3.317 4.336,3.514 0.309,0.033 0.465,0.051 0.775,0.082 1.85,0.188 3.561,-0.719 5.174,-2.645 1.614,-1.926 2.739,-4.131 3.298,-6.623 1.781,-9.128 2.442,-13.584 3.517,-22.502 0.109,-2.788 -0.681,-4.613 -2.557,-5.257 -0.521,-0.187 -0.783,-0.278 -1.319,-0.449 -1.924,-0.646 -3.129,0.503 -3.517,3.338 -0.419,3.598 -0.639,5.427 -1.108,9.109 -0.838,-0.166 -1.26,-0.243 -2.098,-0.391 0.206,-3.765 0.294,-5.646 0.448,-9.318 0.065,-2.919 -0.94,-4.536 -2.88,-4.791 -0.537,-0.08 -0.802,-0.117 -1.323,-0.183 z"
             style="fill:none;stroke:#2d2c2e;stroke-opacity:1;stroke-width:2;stroke-linecap:butt;stroke-linejoin:miter;stroke-miterlimit:4;stroke-dasharray:none"
             id="path190" /></g></g></g><g
       id="g192"><g
         id="g194"
         clip-path="url(#clipPath196)"><g
           id="g200"
           transform="translate(247.1929,80.5615)"><path
             d="m 0,0 0.001,0.002 c 0.357,0.431 0.716,0.863 1.078,1.3 7.549,9.349 11.536,19.519 14.055,28.976 -0.043,0.043 -0.088,0.084 -0.132,0.127 -0.423,0.1 -1.786,-1.4 -2.582,-1.877 C 7.263,25.46 0.789,23.97 -4.832,23.397 -16.686,22.175 -27.741,22.833 -39.082,13.575 -48.979,5.506 -54.561,-6.706 -56.005,-17.82 c 0.07,-0.068 0.14,-0.135 0.204,-0.199 5.459,-0.045 9.382,0.523 14.62,0.211 1.189,-0.071 2.917,-0.03 4.103,-0.053 4.988,-0.086 9.664,0.451 14.542,1.551 8.19,1.849 15.005,8.245 22.309,16.039 C -0.152,-0.179 -0.075,-0.09 0,0"
             style="fill:#e43433;fill-opacity:1;fill-rule:nonzero;stroke:none"
             id="path202" /></g></g></g></g></svg>